<?xml version="1.0" standalone="no"?>
<!DOCTYPE svg PUBLIC "-//W3C//DTD SVG 20010904//EN"
 "http://www.w3.org/TR/2001/REC-SVG-20010904/DTD/svg10.dtd">
<svg version="1.0" xmlns="http://www.w3.org/2000/svg"
 width="700.000000pt" height="700.000000pt" viewBox="0 0 700.000000 700.000000"
 preserveAspectRatio="xMidYMid meet">
<metadata>
Created by potrace 1.11, written by Peter Selinger 2001-2013
</metadata>
<g transform="translate(0.000000,700.000000) scale(0.100000,-0.100000)"
fill="#000000" stroke="none">
<path d="M0 3500 l0 -3500 3500 0 3500 0 0 3500 0 3500 -3500 0 -3500 0 0
-3500z m6721 3220 c4 -16 3 -6433 -1 -6439 -8 -11 -6440 -7 -6441 4 -6 44 -4
6422 2 6430 7 10 6438 15 6440 5z"/>
<path d="M1838 6345 c-2 -2 -32 -5 -68 -8 -384 -31 -734 -260 -935 -612 -75
-132 -141 -328 -160 -475 -4 -30 -9 -64 -12 -75 -2 -11 -4 -90 -4 -175 -2
-415 121 -747 369 -998 93 -94 113 -111 182 -158 127 -86 299 -157 430 -180
14 -2 34 -6 46 -9 82 -18 285 -24 406 -12 438 45 794 287 981 669 25 51 49
105 52 121 l7 27 -156 0 -156 0 -18 -37 c-34 -70 -64 -118 -100 -163 -58 -72
-74 -88 -137 -139 -172 -137 -341 -193 -578 -192 -67 0 -131 2 -142 5 -11 2
-42 7 -69 10 -159 22 -357 108 -468 203 -263 226 -385 579 -345 994 29 292
159 547 361 706 131 103 329 181 501 198 68 7 197 9 265 5 296 -18 567 -204
714 -491 l19 -36 154 0 154 0 -6 26 c-4 14 -23 62 -44 106 -171 363 -503 608
-916 675 -62 10 -320 22 -327 15z"/>
<path d="M4000 6312 c-7 -3 -10 -453 -10 -1325 l0 -1322 147 1 148 0 5 590 5
590 768 0 767 0 0 -587 c0 -461 3 -588 13 -591 6 -2 73 -3 147 -2 l135 1 3
1324 2 1324 -142 -2 c-79 0 -146 -1 -150 -2 -5 -1 -8 -264 -8 -586 l0 -585
-770 0 -770 0 0 588 0 587 -140 0 c-77 0 -144 -1 -150 -3z"/>
<path d="M829 3315 c-5 0 -4 -2645 1 -2646 22 -4 1924 -3 1930 1 13 8 15 270
3 278 -6 4 -376 7 -822 7 -551 -1 -811 3 -812 10 -1 5 -2 206 -3 446 l-1 436
720 1 c396 0 727 1 736 1 13 1 15 21 15 144 l-1 142 -725 2 c-399 2 -730 5
-735 7 -7 2 -11 145 -10 442 l0 439 817 1 c450 0 820 3 823 6 8 8 8 268 0 276
-5 5 -557 7 -1936 7z"/>
<path d="M4000 3312 c-7 -3 -10 -452 -10 -1323 l0 -1319 28 -1 c15 0 82 -1
150 -2 l122 -2 0 508 0 507 23 1 c83 3 898 1 900 -2 7 -8 202 -319 212 -336 6
-10 57 -92 114 -183 58 -91 147 -232 199 -315 52 -82 100 -156 107 -163 11
-13 111 -16 329 -13 l39 1 -19 23 c-11 12 -87 126 -169 252 -82 127 -196 302
-254 390 -140 215 -203 312 -233 361 l-26 40 59 13 c33 8 62 18 65 22 3 5 13
9 22 9 21 0 198 89 231 115 188 154 264 339 257 625 -5 184 -38 301 -121 430
-128 198 -344 323 -614 356 -55 7 -1392 12 -1411 6z m1435 -305 c196 -57 328
-171 386 -333 28 -79 35 -246 14 -329 -31 -118 -107 -216 -220 -284 -60 -37
-178 -75 -261 -86 -39 -4 -918 -10 -1041 -6 l-23 1 0 531 0 530 543 -3 c478
-4 549 -6 602 -21z"/>
</g>
</svg>
