<svg width="25" height="25" viewBox="0 0 25 25" fill="none" xmlns="http://www.w3.org/2000/svg">
<g clip-path="url(#clip0)">
<path d="M8.10547 16.1623H21.3381C21.6658 16.1623 21.9532 15.9456 22.0419 15.6309L24.9718 5.37682C25.0347 5.15575 24.9916 4.91829 24.8529 4.73461C24.7141 4.55151 24.4982 4.44336 24.2678 4.44336H6.4146L5.89104 2.0874C5.81665 1.7519 5.5191 1.51367 5.17578 1.51367H0.732422C0.327683 1.51367 0 1.84135 0 2.24609C0 2.65102 0.327683 2.97852 0.732422 2.97852H4.58794L7.23286 14.8804C6.45466 15.2187 5.9082 15.9933 5.9082 16.8947C5.9082 18.1063 6.89392 19.092 8.10547 19.092H21.3381C21.743 19.092 22.0705 18.7645 22.0705 18.3596C22.0705 17.9548 21.743 17.6271 21.3381 17.6271H8.10547C7.70206 17.6271 7.37305 17.2989 7.37305 16.8947C7.37305 16.4906 7.70206 16.1623 8.10547 16.1623V16.1623Z" fill="#888888"/>
<path d="M7.37305 21.2892C7.37305 22.501 8.35876 23.4865 9.5705 23.4865C10.7821 23.4865 11.7678 22.501 11.7678 21.2892C11.7678 20.0777 10.7821 19.092 9.5705 19.092C8.35876 19.092 7.37305 20.0777 7.37305 21.2892Z" fill="#888888"/>
<path d="M17.676 21.2892C17.676 22.501 18.6617 23.4865 19.8732 23.4865C21.085 23.4865 22.0705 22.501 22.0705 21.2892C22.0705 20.0777 21.085 19.092 19.8732 19.092C18.6617 19.092 17.676 20.0777 17.676 21.2892Z" fill="#888888"/>
</g>
<defs>
<clipPath id="clip0">
<rect width="25" height="24.9988" fill="white"/>
</clipPath>
</defs>
</svg>
