<svg width="42" height="42" viewBox="0 0 42 42" fill="none" xmlns="http://www.w3.org/2000/svg">
<path d="M12.024 18.44C13.16 18.44 14.152 18.152 15 17.576C15.864 17 16.504 16.224 16.92 15.248H18.816C18.288 16.752 17.416 17.936 16.2 18.8C14.904 19.728 13.376 20.192 11.616 20.192C9.296 20.192 7.416 19.4 5.976 17.816C4.616 16.296 3.936 14.376 3.936 12.056C3.936 9.736 4.616 7.816 5.976 6.296C7.416 4.712 9.296 3.92 11.616 3.92C13.376 3.92 14.904 4.384 16.2 5.312C17.416 6.176 18.288 7.36 18.816 8.864H16.92C16.504 7.888 15.864 7.112 15 6.536C14.152 5.96 13.16 5.672 12.024 5.672C10.888 5.672 9.944 5.84 9.192 6.176C8.44 6.496 7.808 6.944 7.296 7.52C6.256 8.688 5.736 10.2 5.736 12.056C5.736 13.912 6.256 15.424 7.296 16.592C8.384 17.824 9.96 18.44 12.024 18.44Z" fill="black"/>
<path d="M6.744 23.84V29.168H15.576V30.92H6.744V36.272H16.632V38H4.944V22.112H16.632V23.84H6.744Z" fill="black"/>
<path d="M25.744 38H23.944V22.112H31.552C33.168 22.112 34.464 22.56 35.44 23.456C36.416 24.336 36.904 25.544 36.904 27.08C36.904 29.064 36.08 30.416 34.432 31.136C33.968 31.344 33.512 31.496 33.064 31.592L37.24 38H35.104L31.264 31.904H25.744V38ZM25.744 30.2H31.24C32.936 30.2 34.104 29.672 34.744 28.616C34.984 28.216 35.104 27.704 35.104 27.08C35.104 26.072 34.76 25.28 34.072 24.704C33.384 24.112 32.472 23.816 31.336 23.816H25.744V30.2Z" fill="black"/>
<path d="M36.784 4.112V20H34.984V12.92H25.744V20H23.944V4.112H25.744V11.168H34.984V4.112H36.784Z" fill="black"/>
<rect x="0.825" y="0.825" width="40.35" height="40.35" stroke="black" stroke-width="1.65"/>
</svg>
